<svg width="70" height="54" viewBox="0 0 70 54" fill="none" xmlns="http://www.w3.org/2000/svg">
<path d="M23.333 13.5H8.74967C7.13884 13.5 5.83301 14.5074 5.83301 15.75V38.25C5.83301 39.4926 7.13884 40.5 8.74967 40.5H23.333C24.9438 40.5 26.2497 39.4926 26.2497 38.25V15.75C26.2497 14.5074 24.9438 13.5 23.333 13.5Z" stroke="white" stroke-width="2" stroke-linecap="round" stroke-linejoin="round"/>
<path d="M37.917 18.7197C39.7813 21.2423 40.7618 24.096 40.7618 26.9997C40.7618 29.9035 39.7813 32.7572 37.917 35.2797" stroke="white" stroke-width="2" stroke-linecap="round" stroke-linejoin="round"/>
<path d="M48.0088 13.9727C50.9227 17.9466 52.4541 22.4345 52.4541 27.0002C52.4541 31.5658 50.9227 36.0537 48.0088 40.0277" stroke="white" stroke-width="2" stroke-linecap="round" stroke-linejoin="round"/>
<path d="M58.0713 9.22461C62.0892 14.635 64.2055 20.7612 64.2107 26.9966C64.2158 33.232 62.1095 39.3603 58.1005 44.7746" stroke="white" stroke-width="2" stroke-linecap="round" stroke-linejoin="round"/>
</svg>
