<svg width="60" height="49" viewBox="0 0 60 49" fill="none" xmlns="http://www.w3.org/2000/svg">
<path d="M40 42.875V38.7917C40 36.6257 38.9464 34.5485 37.0711 33.017C35.1957 31.4854 32.6522 30.625 30 30.625H15C12.3478 30.625 9.8043 31.4854 7.92893 33.017C6.05357 34.5485 5 36.6257 5 38.7917V42.875" stroke="white" stroke-width="2" stroke-linecap="round" stroke-linejoin="round"/>
<path d="M22.5 22.4583C28.0228 22.4583 32.5 18.802 32.5 14.2917C32.5 9.78134 28.0228 6.125 22.5 6.125C16.9772 6.125 12.5 9.78134 12.5 14.2917C12.5 18.802 16.9772 22.4583 22.5 22.4583Z" stroke="white" stroke-width="2" stroke-linecap="round" stroke-linejoin="round"/>
<path d="M55 42.8752V38.7919C54.9983 36.9824 54.2609 35.2246 52.9034 33.7945C51.5459 32.3644 49.6453 31.343 47.5 30.8906" stroke="white" stroke-width="2" stroke-linecap="round" stroke-linejoin="round"/>
<path d="M40 6.39062C42.151 6.84041 44.0576 7.86206 45.4191 9.29451C46.7806 10.727 47.5196 12.4887 47.5196 14.3021C47.5196 16.1154 46.7806 17.8772 45.4191 19.3097C44.0576 20.7421 42.151 21.7638 40 22.2135" stroke="white" stroke-width="2" stroke-linecap="round" stroke-linejoin="round"/>
</svg>
