<svg width="171" height="151" viewBox="0 0 171 151" fill="none" xmlns="http://www.w3.org/2000/svg">
<path d="M135.375 119.336V106.753C135.375 100.078 132.372 93.6768 127.028 88.9571C121.683 84.2374 114.434 81.5859 106.875 81.5859H64.125C56.5663 81.5859 49.3172 84.2374 43.9725 88.9571C38.6277 93.6768 35.625 100.078 35.625 106.753V119.336" stroke="white" stroke-width="2" stroke-linecap="round" stroke-linejoin="round"/>
<path d="M85.5 69.2083C101.24 69.2083 114 57.9408 114 44.0417C114 30.1425 101.24 18.875 85.5 18.875C69.7599 18.875 57 30.1425 57 44.0417C57 57.9408 69.7599 69.2083 85.5 69.2083Z" stroke="white" stroke-width="2" stroke-linecap="round" stroke-linejoin="round"/>
<g filter="url(#filter0_d_362_41)">
<line x1="34.2002" y1="120.295" x2="136.8" y2="120.295" stroke="white" stroke-width="2"/>
</g>
<line x1="96.4932" y1="98.7539" x2="157.565" y2="98.7539" stroke="white" stroke-width="3"/>
<line x1="128.528" y1="69.3115" x2="128.528" y2="131.197" stroke="white" stroke-width="3"/>
<defs>
<filter id="filter0_d_362_41" x="30.2002" y="119.295" width="110.6" height="10" filterUnits="userSpaceOnUse" color-interpolation-filters="sRGB">
<feFlood flood-opacity="0" result="BackgroundImageFix"/>
<feColorMatrix in="SourceAlpha" type="matrix" values="0 0 0 0 0 0 0 0 0 0 0 0 0 0 0 0 0 0 127 0" result="hardAlpha"/>
<feOffset dy="4"/>
<feGaussianBlur stdDeviation="2"/>
<feComposite in2="hardAlpha" operator="out"/>
<feColorMatrix type="matrix" values="0 0 0 0 0 0 0 0 0 0 0 0 0 0 0 0 0 0 0.25 0"/>
<feBlend mode="normal" in2="BackgroundImageFix" result="effect1_dropShadow_362_41"/>
<feBlend mode="normal" in="SourceGraphic" in2="effect1_dropShadow_362_41" result="shape"/>
</filter>
</defs>
</svg>
